<mxfile host="app.diagrams.net" modified="2024-01-12T14:47:12.066Z" agent="Mozilla/5.0 (Windows NT 10.0; Win64; x64) AppleWebKit/537.36 (KHTML, like Gecko) Chrome/120.0.0.0 Safari/537.36" etag="-UQHDu8AJ79s3nm65Ktk" version="22.1.18" type="device">
  <diagram name="Page-1" id="l4KFS2Foj8GZxOkNFIMV">
    <mxGraphModel dx="1104" dy="677" grid="0" gridSize="10" guides="1" tooltips="1" connect="1" arrows="1" fold="1" page="0" pageScale="1" pageWidth="850" pageHeight="1100" math="0" shadow="0">
      <root>
        <mxCell id="0" />
        <mxCell id="1" parent="0" />
        <mxCell id="NPFhlphm1Xm4I36y_C4a-6" style="edgeStyle=orthogonalEdgeStyle;rounded=0;orthogonalLoop=1;jettySize=auto;html=1;exitX=0.5;exitY=0.5;exitDx=0;exitDy=0;exitPerimeter=0;entryX=0;entryY=0.5;entryDx=0;entryDy=0;" edge="1" parent="1" source="NPFhlphm1Xm4I36y_C4a-3" target="NPFhlphm1Xm4I36y_C4a-4">
          <mxGeometry relative="1" as="geometry" />
        </mxCell>
        <mxCell id="NPFhlphm1Xm4I36y_C4a-3" value="Actor" style="shape=umlActor;verticalLabelPosition=bottom;verticalAlign=top;html=1;outlineConnect=0;" vertex="1" parent="1">
          <mxGeometry x="10" y="170" width="30" height="60" as="geometry" />
        </mxCell>
        <mxCell id="NPFhlphm1Xm4I36y_C4a-12" style="edgeStyle=orthogonalEdgeStyle;rounded=0;orthogonalLoop=1;jettySize=auto;html=1;entryX=0;entryY=0.5;entryDx=0;entryDy=0;" edge="1" parent="1" source="NPFhlphm1Xm4I36y_C4a-4" target="NPFhlphm1Xm4I36y_C4a-7">
          <mxGeometry relative="1" as="geometry" />
        </mxCell>
        <mxCell id="NPFhlphm1Xm4I36y_C4a-20" style="edgeStyle=orthogonalEdgeStyle;rounded=0;orthogonalLoop=1;jettySize=auto;html=1;entryX=0;entryY=0.5;entryDx=0;entryDy=0;" edge="1" parent="1" source="NPFhlphm1Xm4I36y_C4a-4" target="NPFhlphm1Xm4I36y_C4a-19">
          <mxGeometry relative="1" as="geometry" />
        </mxCell>
        <mxCell id="NPFhlphm1Xm4I36y_C4a-4" value="LOCALHOST" style="rounded=0;whiteSpace=wrap;html=1;" vertex="1" parent="1">
          <mxGeometry x="80" y="170" width="120" height="60" as="geometry" />
        </mxCell>
        <mxCell id="NPFhlphm1Xm4I36y_C4a-5" value="GET /chaussures&lt;br&gt;" style="text;html=1;strokeColor=none;fillColor=none;align=center;verticalAlign=middle;whiteSpace=wrap;rounded=0;" vertex="1" parent="1">
          <mxGeometry x="110" y="240" width="60" height="30" as="geometry" />
        </mxCell>
        <mxCell id="NPFhlphm1Xm4I36y_C4a-17" style="edgeStyle=orthogonalEdgeStyle;rounded=0;orthogonalLoop=1;jettySize=auto;html=1;entryX=0.5;entryY=0;entryDx=0;entryDy=0;" edge="1" parent="1" source="NPFhlphm1Xm4I36y_C4a-7" target="NPFhlphm1Xm4I36y_C4a-8">
          <mxGeometry relative="1" as="geometry" />
        </mxCell>
        <mxCell id="NPFhlphm1Xm4I36y_C4a-18" style="edgeStyle=orthogonalEdgeStyle;rounded=0;orthogonalLoop=1;jettySize=auto;html=1;entryX=0.5;entryY=0;entryDx=0;entryDy=0;" edge="1" parent="1" source="NPFhlphm1Xm4I36y_C4a-7" target="NPFhlphm1Xm4I36y_C4a-9">
          <mxGeometry relative="1" as="geometry" />
        </mxCell>
        <mxCell id="NPFhlphm1Xm4I36y_C4a-7" value="elasticsearch" style="rounded=0;whiteSpace=wrap;html=1;" vertex="1" parent="1">
          <mxGeometry x="280" y="40" width="120" height="60" as="geometry" />
        </mxCell>
        <mxCell id="NPFhlphm1Xm4I36y_C4a-16" style="edgeStyle=orthogonalEdgeStyle;rounded=0;orthogonalLoop=1;jettySize=auto;html=1;entryX=0.5;entryY=0;entryDx=0;entryDy=0;" edge="1" parent="1" source="NPFhlphm1Xm4I36y_C4a-8" target="NPFhlphm1Xm4I36y_C4a-10">
          <mxGeometry relative="1" as="geometry" />
        </mxCell>
        <mxCell id="NPFhlphm1Xm4I36y_C4a-8" value="KIBANA" style="rounded=0;whiteSpace=wrap;html=1;" vertex="1" parent="1">
          <mxGeometry x="580" y="30" width="120" height="60" as="geometry" />
        </mxCell>
        <mxCell id="NPFhlphm1Xm4I36y_C4a-15" style="edgeStyle=orthogonalEdgeStyle;rounded=0;orthogonalLoop=1;jettySize=auto;html=1;" edge="1" parent="1" source="NPFhlphm1Xm4I36y_C4a-9" target="NPFhlphm1Xm4I36y_C4a-11">
          <mxGeometry relative="1" as="geometry" />
        </mxCell>
        <mxCell id="NPFhlphm1Xm4I36y_C4a-9" value="MONITORING" style="rounded=0;whiteSpace=wrap;html=1;" vertex="1" parent="1">
          <mxGeometry x="730" y="30" width="120" height="60" as="geometry" />
        </mxCell>
        <mxCell id="NPFhlphm1Xm4I36y_C4a-10" value="METRICSBEAT" style="rounded=0;whiteSpace=wrap;html=1;" vertex="1" parent="1">
          <mxGeometry x="580" y="125" width="120" height="60" as="geometry" />
        </mxCell>
        <mxCell id="NPFhlphm1Xm4I36y_C4a-11" value="LOGSTASH" style="rounded=0;whiteSpace=wrap;html=1;" vertex="1" parent="1">
          <mxGeometry x="730" y="125" width="120" height="60" as="geometry" />
        </mxCell>
        <mxCell id="NPFhlphm1Xm4I36y_C4a-19" value="flask app" style="rounded=0;whiteSpace=wrap;html=1;" vertex="1" parent="1">
          <mxGeometry x="280" y="190" width="120" height="60" as="geometry" />
        </mxCell>
        <mxCell id="NPFhlphm1Xm4I36y_C4a-21" value="9200" style="text;html=1;strokeColor=none;fillColor=none;align=center;verticalAlign=middle;whiteSpace=wrap;rounded=0;" vertex="1" parent="1">
          <mxGeometry x="310" y="100" width="60" height="30" as="geometry" />
        </mxCell>
        <mxCell id="NPFhlphm1Xm4I36y_C4a-22" value="5000" style="text;html=1;strokeColor=none;fillColor=none;align=center;verticalAlign=middle;whiteSpace=wrap;rounded=0;" vertex="1" parent="1">
          <mxGeometry x="310" y="250" width="60" height="30" as="geometry" />
        </mxCell>
        <mxCell id="NPFhlphm1Xm4I36y_C4a-23" value="5601" style="text;html=1;strokeColor=none;fillColor=none;align=center;verticalAlign=middle;whiteSpace=wrap;rounded=0;" vertex="1" parent="1">
          <mxGeometry x="530" y="70" width="60" height="30" as="geometry" />
        </mxCell>
      </root>
    </mxGraphModel>
  </diagram>
</mxfile>
